<mxfile host="65bd71144e">
    <diagram id="TVTRDEHELD5jk3WuQHn7" name="Page-1">
        <mxGraphModel dx="1062" dy="782" grid="0" gridSize="10" guides="1" tooltips="1" connect="1" arrows="1" fold="1" page="1" pageScale="1" pageWidth="850" pageHeight="1100" background="#F5F5F5" math="0" shadow="0">
            <root>
                <mxCell id="0"/>
                <mxCell id="1" parent="0"/>
                <mxCell id="18" style="edgeStyle=none;html=1;fontColor=#E8E8E8;strokeColor=#000000;" parent="1" source="5" target="9" edge="1">
                    <mxGeometry relative="1" as="geometry"/>
                </mxCell>
                <mxCell id="5" value="Azure Logic App&lt;br&gt;Process Audio" style="aspect=fixed;html=1;points=[];align=center;image;fontSize=12;image=img/lib/azure2/iot/Logic_Apps.svg;labelBackgroundColor=none;fontColor=#000000;" parent="1" vertex="1">
                    <mxGeometry x="318" y="450" width="67" height="52" as="geometry"/>
                </mxCell>
                <mxCell id="6" value="CosmosDB" style="aspect=fixed;html=1;points=[];align=center;image;fontSize=12;image=img/lib/azure2/databases/Azure_Cosmos_DB.svg;fontColor=#000000;labelBackgroundColor=none;" parent="1" vertex="1">
                    <mxGeometry x="661" y="638" width="64" height="64" as="geometry"/>
                </mxCell>
                <mxCell id="17" style="edgeStyle=none;html=1;fontColor=#E8E8E8;strokeColor=#000000;" parent="1" source="7" target="5" edge="1">
                    <mxGeometry relative="1" as="geometry"/>
                </mxCell>
                <mxCell id="7" value="Http&lt;br&gt;Request" style="sketch=0;outlineConnect=0;fontColor=#000000;gradientColor=none;strokeColor=#232F3E;fillColor=#ffffff;dashed=0;verticalLabelPosition=bottom;verticalAlign=top;align=center;html=1;fontSize=12;fontStyle=0;aspect=fixed;shape=mxgraph.aws4.resourceIcon;resIcon=mxgraph.aws4.http_protocol;" parent="1" vertex="1">
                    <mxGeometry x="147" y="446" width="60" height="60" as="geometry"/>
                </mxCell>
                <mxCell id="19" style="edgeStyle=none;html=1;fontColor=#E8E8E8;strokeColor=#000000;" parent="1" target="10" edge="1">
                    <mxGeometry relative="1" as="geometry">
                        <mxPoint x="515" y="542" as="sourcePoint"/>
                    </mxGeometry>
                </mxCell>
                <mxCell id="9" value="Azure&#10;Video Indexer" style="shape=image;imageAspect=0;aspect=fixed;verticalLabelPosition=bottom;verticalAlign=top;image=data:image/png,iVBORw0KGgoAAAANSUhEUgAAAJMAAACTCAYAAACK5SsVAAAACXBIWXMAABYlAAAWJQFJUiTwAAAgAElEQVR4nO28CZRUVZaofWJwBCessspSmUFxRgZFJgUnkBlMpsxEQQXn0lLJhJznTHIeyAnIDKusqlev+3/d/1tv9Xt/93utVdVV/bq7ehByIjNyjIh7b0RmJCKWGsPe/9rnnHvjRmRCaTUKaJy19trD2WffiHO+OPfEzQDGzmPb1TIqxW+yhSS3jJ7PS8Xbt7Ult/jZzmM+tv2oxhJbhllSi9+W1DpqTWz1W7lN/X8VZMm1LpbUeupCv9x4u5hB2uEYZjtbRlhiy4iVoCJ4klpHWWKrnyW1jPC+pJYRq4jRLuXnEm/xFtUS3/OzxNYREivtSjuOeq9NavG/ktwy+tOkFv/PklpGXtp5dGQiQZV4ZJh2JuuO9z5hiY6PWZLj4/hsxluk7fjZMO1AVgIqqWXk/qQWf29yix+TW0cxqcUvpNU/mNQ6mrSz9RS/zSW3DPPb4PZf/pEl1mt8J4u3eGNJrX6L3JmuT2rxdwt4RgNJLf5AcoufdNCAqsX/2+TW0UeS6VzlGKWx9uSWEUty6whLplvisThU3+mW1DpKuwzpH0tgAsmto5Dc4ichH5Ja/KGkFn+Y+pMFXD9NcvhnJxFA/Nbnt0kgyY7vVN/VltTit4sDt/+YGSaCSN7uQPdplzLdAn1JLf6spKPDkwigTb9yi2+BzcMs8YiPJR0budBvLd4uGEwt/lax84wGklsEQMktHBoJlgFUmHJMt772pBZ/4tZfKfQYgSX97GNLUsuoNfH9YZbo4LvWN/6e4u0igEne1ggUY2cy2TpMwm8dDdOZynRQ/7ukFv/i5PdPsyR6yHlslOCyJL03wp6l81X8PPXtb8kSpmSCSYARMMOj3+bMYEVBJc5T5kP6saTWjyfTE/OkozHnKQe/nV7otxxvXydMtPDJLaP8Nie+xRm3NJMY5yiCS4AVOUuJ8xT51Nc6+llSqz8zuXn4SoJnz9FPCCIrnaMS+QPQOFDfiTOTPIDT2Wm8XYi+zZkP5zjOrZDvUhK4vqQWf/KuI/R8ij9Vpz/NWHY1dLHtv8L4n2a+nTuTuM3pMJnORQY8tDONv2PpZ6uoPnqMEEpu5Q88qeY/JLX6HyWgxM40Ykuk51sOPyOJ/2nmW7wzmWCKOjuNB5IOnXlMzHmKP5+SO9Z7ia3+2/mfZsT5iR56MpIkevAZ/2XCtwAm8dAy9jaHY85LJrjGg+cc0NF5Sv/TzHBSqz8r0TF8I+1UL9X18+dT4oGneOgZb9+W50ziTynjgGGGyziIj7dLne1WSFo8ShC3v/bkFv/OXUdUK+1Uu46dsiS1+K27mkfZ9lYf//aXHH+c8O25zX0JMd/e+NNyo691DHh6fziy+3Go6PnUouSWU/KnL35rIn3rOzrCko7GHyVccjDJRwMOM0zm25l+8I7500q0mM5N5zhbmQGMfT7VktTiv43/EO/oML0eW7K4/cbPUt+SA/i4B+vxno7rueNBmHTuGAEl/nTT6v80qcWfuaN5+EoCPPHoML/17XyP/jQTP09dQjBFDuDn3F1ibdMfhc/yLY8/s5LPqARw4u9+sZCad6m+pFb/c4mt4m97tEvxnxG/d4rt+ukf4w89L9EDePShexzfBFcMTGO/5Y3d3UZjz1fhCFT8Wh8mtfhXJB0bFb+f4q91RP/9Vfyb36V2AI95bnTWc1HM75/OeVj/Erue+flUKKnV70hynJpDr1P8InTURj8Zpl99xv+Bw0XUkltH7XTQTW6NHMDP9rX/HAfraFDGOT+ZdqNx/1QzJl9cn34/pdcfTmoZOZjY6p9Eh/Kdv0AO1S566CmfUdE/yYq3iwOm6F8NfMlvZ+fKG+cB51fJ1fPFo4TIeaorqXV0x8730UY/dUlsOWVJah21rHgU2XMOX/zWd+EfDcT+bS5yvhG3L/2w/OV2KvMu9FWBNO9aMbsjh8r4I3Kr//8ktYw8tPMY//JAz6ToVwmWbQ0++hbIdh3xs/pRvKBz+52F6U89tBznljXOt7ex+bG3tLPd4v7ULmXyY59PORJbTk1JPjbKNleprKwrYPsvYWRNvjBr9oUv9PR+t9rZDuBjnmjr8BzjP9v9s3Yl/actf+I8Fnvds0EWkq+DvvmdSWrxZ28/rFxe1RtgL/7yjKV5GGz1LmDN3hBr8sKFnubvMEzj7DBf+tYW+ZNJVA39WdM4O824u5y+i50VLPHTFtB3qcRjftzl8DtL2gPPvvLLM+ynf0TWNIy2Ri9YG3xhVjcCrMkXh+qbhumLs+0YXwKmsz5r+rLfDhO/Crx0djrGwQpvbx4JvvW/zuCRYcQmL3zY5A2vbBpG1ugNswYv2Bp8YUujL8wafMAavGFWPxoH67y3xGN+O//D6rGR1kT6hLf4A7SgUtBkA336o3wREzJ2zNjcMWNHhOh1zDX/1NiYOrveG4XqgVDoyAiGGr1AQJE+1uAN304ANQ6HCCp7PcGkhbnED+jnue1s8dt30h9XW/yOncf8uLPFH9hpAmNnywjsPEbijxKjX4+16FrPlZDIuK5lnK4jxkZyKBZVU8Qj1xd9I+YaPGdb0wgc+O0fodmP2KABNHgh2OhF5OKDkUYfpNUPh29s8AKrP/0Fq/eCtdYXZrXeMDscP0+dv7bzmN9OX693HvO30oLuODYS2HFsBHYc8wNpGTNA0GN6XO87my1zjbEirufpsMSON65tum7U9cnmoG8/MoLP/XwUaj1haPAhNng5TNjgRWjwQVDGSE7We2Frw6mg7TDd+lS01HrB0qSFWM0IsEYtzCrijxL+c23HsRH7jmMjbMfRkdYdx0YMmLYfjSz+OILbzTlSU0zW0G1T3H+2mjH5HCZzzICWXzNm/NbmYcj6w+fYPIp4WAOs96IUAKnD9V4MSBvrffDBYV94Ub0XWa0WZoc1sB32hS0E2GG+W8XPUn92235sxL792Ahpx/ajI7j96EiAFl2IXywg2abF3Cb7t8m+bUeGo3NEP9WCcYTiBKMBpK71ujImco6On0MgJTQNw97/9jHU+xAOe0EKoqE1w+dQHfZiUPfrvPDTGg1uodtc/XCQILJVj4RZHX3z88Z3qT+rbTs6Yt92dIS0Y9vRYdx2dCRAC3ZuGf7TsSOGTzVR1tbzpP1niRh7TNQpaA9gwwhinQZQ5yVBAsWAinwJGo/XeSFU5yX4eN6ZOi/k1vqDV9KOVD+ElhovWMv8YVY5HGbV8UcJX61tPTJs33pkmHTr1iMjuPXocGDrkWHYetQsIyBiUuv2UbNNY2UsKm6qYYjZF9BFXSPWjhECaUuDD179m08IJKjVAGq9gLVeRGETKEJqJVAiJvpEDEJ1Ph4jv6fWC3sOu5DVeMOsVkVrtS9sJbvaCzwWP099iZZwZNiecGSYdGvCkWEB09FhTDgyDIYcJRnhMTMkRp/Mo3jsuK1HeK2QzDfq0jWMGuMIwTlOjMszzcPhHY4RONQbwrphhBoBEAEFNQIcqSPwRNsCrlovhGu9GKzVuI01XvigxgeP1arIqn1hVq2BvdoHFjpb1alhVuGPn6e+EkwJR4YDUuMzkcXn+pmITX3c57HmSJ8Ri+iwiPvgmWZfUNQT0JlzTflRfaYYr00wbar3wdu/+RQaTiFWawKgGg4DYjXZGvk8BsKmHJmnmWNGX6jGi6EajQMVrvFCS40vPKdaA1YzEmZVGtgqfGFW6RUSb2dpzxwZtj9zZJh065ZmvmCBLRIOKbglZnG5L3KioOK5zT5hi/4wz2n2/auME1TBZ44Mh4w6kVw5nsdpHMEXew3c3DQMyb8YhXJXGGt8CNUacIAM0Uw2F4BIDGBsnhGDag2CUlN8tNoLB6tHwjdWacBKT33BKr1gqxgBVqmEWCXtVPFHCdFtS7PPvqXZx7Y0Dzs2N/toMTlMm2lRm31AgG05wjVffBGL9YdjRI5r9gW28Jq+9Vuah+dvafb9nl/jiNEXjqoXGRvj8zEcqA31XjjwL59BnR+xUgWo8iJWaYBVEo4qQwQkpIUIcKq8YMoxBPQcqQM8T+P+ySovbCv5+FNrhQaszAOWCm/YUqXRLgWsLL5TRdrmZp99c7OPdOvm5mHc3OwL0IJvbvZBtBBgsbExOXKcgNGo1TS8bXOTjz1e5bZubvbt3dzs65XXIAlGXaPJqMdrbdL7jvg4SM/95Smo1AAqvVz44ld6EStNcFRqQqo0c1/ENvp13+gD4H2idrhSw4CMk3xYocHCUg+wCjqQa2Ar84YtZb4wI6lQ4ucptikCk2NTsw83SQBoEbk0cTBwUxOJvrjDol8svGFvavJRDvn6+IC0EzbxawzbNx/xsXWH3RM2NfkObWryfSLHhDc1+4JyjHEdo67Jzu4IQI0foUKVAGgAFV5EXShWoZGIOIFRYYaF9wNQjg6XYWt6LTGG1yGovBjicQ2w3As/LfeFJ5drwFoRWfJf+G3L8xS2oWmYbWjyfbePUxubfPaNTT7SrRubvLixyRugRdvY5IWNApCx0sz7cSNpsfhIueSLsUIIpo3NvGbCxiYv29jktW9uHrZtqFcIYrax2TtzY5P3LzaK8STBjU2+8MbY6x/xwbrDXtj3N6ehahixXIMIMHzBhZTzmPRNYJRH5cm4NlbKo8ZF7HIBV6hcQ6pF/ukyL+TWf4yXb/3ZMEvv/NSyoclnW/Pmx+yZkm62oVFj6+u/g79H38Bh4gvduqHJhxuavAEdhg1yQaXNF3xDYyRGC77BJBIIHQQOJtXc2ORLkMDaN9G1GjXLpmafbWOzl3YrmvylG5q8/2KCKrChyUtQcWDpmnSby+8NYeUwYpkGQFIuF5og4sJ9k005RlxAda4xZRQ3xsXYkf4gh9aHWOIOd29/f+T5Vz/0szV1XrauWbOta/BZ1zepbG2zm61r+I79J7Ebmrx22p43NHkd6wUsBABIsKJgoUXlfY267YX1UhvxJi9uaNRzOBRUJ2FDk5dfa1OTjz3TMMJ2VX7KNjb7rJuPDFupb9bRv2XrG73Prm/0ueQYqkM7Fayp0+C1D85ApR+xVAMDpjKvWGChCTIp3Db1SxAMW+/Tc81jtZiYYetjAEpVCFf6MfST3/8R1x724oZm3/9e3+x7fF2zl61r8LF1jZptTaPPsqbBy9Y2etl3pq1v8trXN3lJt65v9OL6Rm+AADGkyYsEWYyv96MRM/cbto9q4boGLWFdg8bWNWh2/bocrmYvvyVsaPLa5te3sQ2NXra+XrthfaM3a32T9wuqtfawFt7605FgiScMZT4OE5R6EbnoNmlNxrgfa+t50taic8rGjgGRQ+P06wl9iHapYYT8/hBsOuoLrqv3huR7xvWNviPrGofvXNfoZWuahtnaBq9tTcMwW92ksFVNyrf/1reu0WunN7+u0etYRwvf6A2sa/SCEE3qLyU4TuwLiq9v8iasb/LRzmPARI2fLZo0+iSzdY0qwWRbX6+xdQR3gzZnXaP3Z2sbvPjOv3yGFX4MHlIhrANxiBZWLu4hjbTux4rMlWCIcXKMzC+Vdqm5jp7L6xv5ZGP5COK+v/0Enq5V6cND7zNomoPRtY3e1DXNvklrGzS2uvYLtqbBa326boQ9Xedlaxo09nTDMPtWtrUNmp0vZoPWurZBw7UNWmBtg4BhLUmDrgVYaxu9aNgNWkQaSfN8pPx1Iicg8xNoYula472G9Y0+vittqPeyDQ2aZV2Tz/ZkmcKS/9sptu3nI48XeeA3tLAlGgkED2kIJRqQDTLGtQ5HiQSN95liUXGT8JiX5xn1+BgOIgAfqwEUq4BlIwjpXQFY1yTnRXzg+Htey9+vRkDhmgbNubbBm7CmJmDjt7smt+Xpeq9lVYPKVjV42OqGEba+XmHfqra2wWsXC+11rGngkyAAaNRgTYMX1nBQCAhhc98klCMhMvWJ8TS5smYCfSLXnAUmva1vUNnmejd7ouFjtvawZt3116esCT8bZgf/NcCKVdhXrEFfiRf4whdrEOQLzEHQoYqWYim6rcMlxsuYhKvY8AGMXAlUsYSV9CEf4q6/PgWralUOVPR8cD9Mc7hGfDAJsl+vafA9uK5RYU/Xe9nqBs22usFrWd3AbfatamsavHZ6k0/XE0wah0lAwyEQQDXSJEVgMgnGxp+uj+rnk7qGPqF0jmiIvs2dra2t97LHSxV23+t9bMd/8du2vT/KijVgRUr4mmINi4o1OCMXnxY6RLqIfAkCt0061iYAizgkuiYoAfQY+bH9RSpAmR/x7T98xkHi769+/Pf9tNAEVVC+f3y6QfvF0/W+W1c3qGxNg4+trtdsT9Z7mNipVPbkt2GXerpBsz/N7+Na69MNGq5u0AI0MWTTpHAhPxLj8dWRmMxRI3kyvrqe1yIot4qzwrl3JnPL7gmyIhVoRyKIWLEXbMUKkGZFCkwvUuEvizTAIgFGqEiDcJEXyOYAEDx/WmSehKvIiAEURnwsUvl1oEABfObnw7CqToU1jeb3LudGn4/oOQiZ5u7jp+u1vLX12lWr6zW2pnbYsqpesz1W5mZPVrvYU4dVdkm31fWqnd7Y6nq1dTXBVK8FCJTV9Rws8mF1vcrhici5fNWsqRaurlcTVter/Fpf9fWVKMCKfMgKNSSwLARVEUHlA1aowvJCDf+5UEOUEiQIpE1at8cRAQzZBSa7cEwOYoEKcGgU4dV/+BSfrFF1SMQcffn5Ccp8kq7V9drzdCBfVa+xVQ2a9ck61UowPVmnsqcavOzJCuVShYkvdOuqeg1X1auBVfUarKpXo4QmhduHyReTsuqwmKxIjp5vxL5YVa/iU4fVBJqopw5/dZj0xgHyIDvkRrKtJcNgLVSBZf8tsgIVkgo0cBdogFKCBEiBKkAp4MDEih4nbc6J9vNVgEIfQtZACNcd88FTdfr7E5CI+TC/b13EPMk5FfqwGl5VrwX12FP16t89Va89tqrBy54iiA6r9icPKxayV9Vp7IlL7da3ql6z809HveZ46jB/04GnDqvwlJwcsgkaoVXDX3WYQ8L9p+qjbCHCp1r41GEtQV7jz4ZJb4UKsAIPsAI335lsb2UjK9CA5avhSQUa5ORr+Hk+QaBhOF+DUL6GkK8B+ZCv8rhJAMbaYNIAeSpg8QjCs3/zMT5WpQDt1sZ7Hft+xZzJGM2RMYf1cpzIDXIhyMTcNj9Zp90hPnAKe6JOtT1Wp7InahUuj18qt79VDapdHgJbV9FENdDOpMJTDRqs4sI/dShsI8Z9AZyq58gx5Gv0qSMd4Ln1asKqepWt+jNuc+M1uuUVKmhAVaCBLV8L0w7F8hSck6/Ce3kaYJ6GmKdBME+DsA5U3jjQjI2hiKsABcOIKZ0B/n6ePByRp76sSNBix8g6Qenjk4fV00/VqSlP1XkmEUDLqr3s8TrF+nidh617ZZg9dkS9+G99K8o99hXlHtKtKyo8uKLcE1hR7gZuC4FHyz2wgqRCCPmPmn0ec+s5YozoC6wop5ruhBXlbn6t8/naC2iX8gLL1zhQlgIVbHkq+cjyVHgyT4Pf5gqgMFfDYK5K4JBPUCHkqdymPqQ+rjUAPS+XAPQhbvt//PBYtRIFkxSCAJ6sk2Luq1PgibH5Rl9kHLeDshY+Uaf0PF6nbp2TF2BP1ClsRb1meaxes6xs0BgXvlNdpI8UXvrdp/aXfvcpacdLv/sUX/7dpwGpYRzBl3//KXAROeRz/ZIph2zpB6SfIK9xXmHSG4dHQ5brR5avgjVPQ1uuCuzQZ8hyVdybq0IvgZGjckCCseDodg73BVw5CkDBCMKP/+0zXFkjwHiCAKlT4PG6aF+Iepa4jEXFyZa+iOMTdWr4iTo18MRhbpP8w+OHlYUr6jX2WL3GVtYptsdqFMuKBpU92niR7lKFo2gvHEXSjsJRxMJRDBSMIhSQfQqh8BSPkS18kUMCMcLjNNaUE5CxhIJRZAWj+LXApLd8BVi+EmZFSojlqmB7HwkyYJkKTMhRoSRHhU9zVMAcDQmcEMGTQ+CQVknrNgcMsj2A697zwcpqDzx+WEA0RmqlPqzi4xKoaKH4mFiMrZpzQyQE1ON1CtV8/7E67TbakZ6sFFA9Xquyx2pUtrL2IjtLZSlgz1KAtCNLAcxSICC1LmASsz9eH49lRvr0WgnyGl8rTNTolpfjQZbtRpbtAoLJluUBluMFlq3C9GwNfpWtAWZrSBLK1iCcrZINIAQxSwXMG0F88Tdn8NFKDzxWp8BjtQrXtODSDxMEj9Upum/YMi5iupCv55qllsci8VpjfMhU89RjdUrRk1XeK1bWKeyhyh62ok6xPdLwKVtVfJo90uC+OHaqLA3tWRqSdmSpiFkaBPiEmoXiaqwPEJ1DvoypclE0DMj+BHmNrx0mvWXTAf3jEH3LYzkKWHK8YMtSwyzXhyxThaVZKvxzlgb0fun9BLNUCBNEJDk+hAP9IXiqWYMVNWKBV0ogSAvxjI3Twpug0nP1vJW1Cppihq3n6GN4fgTGINWTYztX1irPL6rp52enR2tV26M1HuviRjebd8zFnrjQQGVqaM9UkbQjU8KkA5MpQcmUkAgNwPNELmSaACJbjAHg49ULB5PechRkOS5k+YNIO5M114vWTAXYmr8+Q1DtylRhMFMAhVkaBjMVgJwRhMT/+TEsK3fzBV5R4xFSq8CKWg9fcKF1OwKF3n8WwUgdkavXia4XrVfWKuEVtUpwRa1Hh+pvV9QpTzxSq7JHa9xsea3btqJGsTxS6WLLKgbZygt1QDdgUtFBIGSqECBYhC21BCni6zZpU9yICZ2hyVoqJMhrfOMwGe9TAZbhCbN0d5hlqWDb909Bgomle2BSpgbZGRp8kUG70giGf9IRCImFNi06h8ADj0qwuBY5aO43Qyd8JZIT0ZH+6GvgihoJHLdjatZ4QlKoDvU3rqjy3LG8xs0eq1XZI9Vu2/JqD1vR5GaPNrjY8m96p8pQ0Z6uIktX0ZGhIRIAGSppKdwmMHRttvU8U0w1aRUDGRpQTkKGhizjAuxMsUBlKsgyPMgy3LQbgy3DA6RZuhK+M0ODn6ergJv+YgSXVriDK+qU8KM1HiRwhLilPofUKiK/VjlbDo4/7izxGlknul6Q+/xayseP1ij7V9Yp1y+vdrNHKobZ8hq39b79YfbEkV62lGI1nm9mgtM1tKdrSNqRriGmqRBIVxG5aFJUAOEDcOH90tZ9k84wxkBAjk/gwF5gmPRGQGX5wyxNDbEMBSwEVf5pZK/9x2fs5T989sSKw8pvHqnxoJTAIzWe8CPVbnykxg1CPF+jfKn6KDW9NhSvzdP/SLXnmYfT/RbaqZbVuK3Lqj2WpXVutqSedikPe/Dr3qnSVLSnqUjakaYKmNI4VFLIFpCBYWsARr85j2s9jzQEZM0EeY2LAia9ZSjA0lwhdmCY71LWNzu+sL7bG2Jrfullj9S49y2vdvfrUC2v9gSWV4vFXE5STSLgIs37qiMwUA5fcMqj8ToAwpc15NgYWGQfGv2m6xrjZXx5tSe8vNodoHyCanm1+zfLq90PLat2s6XVHra0xm1bWuW2LK1ysaXVLrb069ylDqpoP6giacdBFfGgCgGhEQ9qQggMbqsAXAxb5um5EqqDlC/igYMqUCwhTUOWdpHsTLEtXUGW7UP+7+De7g7a3hlEfmtYXjU4cXm1u3hZtfvMsmo3Lqt208IFl9W4YVm1EB0GinEABHikZT/55nwTRFJEnweXCTiMGI3Vr2G6HtWPGcvtkBRcXsPll8uqPbcurRFQLal22xZVuNmj1UNsec3Q17NLHZAwHVDRcUBFPKBCgGuNbO5zMEgfMCARQPGY7ptF9hGYskbCAXGNixImao9UufmBdVmFm8sj1R7b8soh+qbElla4pi2rdv8lAbVUQBUiWRpZTL7oJv9PCc/XZWmVyT7HOKNv/Hy9Jr02ApNkdGmVO++hauXqJdVutrJuyLKk2mWlHYqAWlzlPr+TmKqinRY6VcKUqkGAgyRhSpUgcW0CKCIRX+Sa8lXkMKWqmJAqrnHRwqS35dUulvlHZI9U+tjyKpeFvnYvrXCxZXUutqTKvWxptfsfl1a5UUpgabU7vFQCwbVZxosRkBSPlUg+LomtIeNj7Go3LKlyRWLc5znhpVXuoP46l1S5O5ZUu194vGGQLami9+Gy0vu8u9LFFle62HlrKSraUxRkKQo6CIBUFQJCE1jc52CkcB2xU4yYuU+I3pfCawGmKpiQqlwaMOltWYWHLSvzsBUlKlta5bYur3Vbl1S62YKCQdLJS6rc7iVioWjxg7SIEXHBEoJC2Dimz4iZ884mrthYZCwHSeixeTwWWlJFr42ux6/5/y2ucs0loBZXuay0Mz10Pnen/Sra96tI2iEhCAitSxQcJnu8vjE5vNZ+BRL2K0DAXjIw6W1ppYctKfewxWVugsq2+jdn+O3h4Qpl0uJKV87iSteni6vcuLjSHV5c5QournKDLrSoiyvJdnEhEIQtgND7uM379H6eY4yLjhtCgMixY/pMNXh/aHGVOyjrfLq40rXo4So3vQ/r1wbTflp4FQJCmwVgfHs8X8Y0vRZQLEFe45KDidriqiGxU5XTmcpDtzvb4gq+GGxxhXvO4kr3z2hxSR6udOHDVS54uNIFD1e5hZYi4aF+XEx+lZvyYXGkn0PDx+tAmMfHxHhupekaOnimMSLPza/5cKXr88WV9Drd//pgZZ99YWUve7hyiJ239q6C9ncVJO14V0V8V4WA0LoARLRuI4zfF8nZL2sZMGmXLkx6I5AWVbvZoio3W1LptiwmqCpdjL52P1zpeurhStdvF1W6QosIKLmQi2IWdjxZpOcJuFCOMWqYRO+LHhfRUdddVDkkcwW0UXUqXCsWVbjYogqXjZ2v9o6K9ndUJO14R0V8R4WA0IjvKELrYOl+VOxsogC8o6KopUDCOwqwdy7B29x4bVHFEFtUOcAer+1kD1W47IurXJdRjCGyRZWuvyeYJFSwqNLNAZCCiyqGDDidFL4AACAASURBVAgeqhwCwxda9FdEQDHLQ1JixuK4ubxO5FqmmkExZmjnokp6H0P28wrT2yqyt1V0vK0ivq1CgDRB8LZCPgcMDK1EbB2aSI6wSUs/8LYCVCtBAntJw7SwfIhNK1bZ/RVutqB8yDK/bMi2oNzFHqxwswfLhx57qGLodw9VDH2hLzqXCrGwwh4iHyNxvY8LxUUfaWOMXovGCnhEHXPNqPqR2BjbuCZdZ+VDlS76MJy/neltM0wEjwKBn0iISH4iNQdFj0uAIhLxf6ICmMZwMH+iYsJPVGQ/uURhWlA+wOZW9LP5Vf1sXmU/m182aCOw5pe62IIy1+wHK4Z+8WDFEJoETBoerHBJbYgpz2Xqj8qL6RdCMJ6j7tkEHxTjPpd2x6JK72WLKofZQxXn8Yk4LbBcaAdB8BMVAkJLUSKAcK1E7LfMfTxuyhN24Ccq4FsKJrylIHvrErzNLSgdYAsO9bGFxb0comn/9UPSbH6Z67qF5UMFC8uHTpvACS2sGIKF5UL0xVxYMYRSwBDKoZjMXVg+GH7wLH0PRmJ6Pd5P142pFxkXPSa0sHwoKF/DZwsrhpY9WEFPwYesD1eeR5jeUtH+loqkHW+piG+pEHhTIS2F2wCyD95SBERRMZ4X28ftwFsKUJ0EeY1LBqa55f3svvI+Nq22i+CxPlDhthJE7O9/xhaUDT6/oHyof2G5gGRB+WBALnz04sYs6gJzvHwIFpSJGNd6jHwJkx7j8QgsRk1jnITIqMFlkOzwwoohem3UR5D9ZkH54PyFFXRrdlkfrlDZosrz+GjgTQXtbypI2kEQvakImAxRpSgAhh9lS18151M/zwm8qQLFEt5Ukb15CcD0QOkAe/K902xh7QB7oGzAMr90yDa/fJDNq3ARVI8tKB/6LS2MlOD8ssHw/LJBWkC+mASD7s8v51oXjBbqGzSAoFyjjtCir0z06ZCZaun5Y4XHB4MLygdxQdkQzi8b7J1fPpS44HAPv2UvrHDZHix3sbuqPiL7/E3ejxW0/1hB0o4fq4g/ViHwY4U0oqFVAG4rAMLWtexTY/oi40QtBRPkNS5amOaW9bN5FX3sgbJeNreslz1QPmgjsOaXDrF5FUNz5pcN/mJe2SAtDM4vGwrNLx/iEBkiYMD5cpEjcZPPoeGCY8ZKmOZJiYyT+WbfiPHXEzV2ftlg0HgtZYOn55cNpi8sH5y4oHyQLWw4yRaUD1oXlA+xBRWDbGHF4PmdxDdUtP9YRfZjFR1vqIhvKAQAwBsK4hsq6YhNgHCfaxNIprgOHx+rYkDGEugadC12EbbXFWBv0P/pjcj2dHxuu+Lp/8Xm0W5UNnDDvLLBvHllg5/Q4s0rHQzPKxsM6QvOpXwQo3wRi/TRuNj+MoqPM06XUlPe2NqRGK9v2PS6gnIMvVbHvLKB6QtKh9gDFYNsfvmgbWGZm80/NMDmlw18Pb8aeF1F+xsqkuYwva5CgEB5XYdGNdsAr0uwKPa6hEi3eZ4BG88NiBxMeOMihIkg+rEH2JseYK+pYN3y+9PWF05+zuZV/F/LA2WDex4oHRx4oHQQuZQNBmjRHiAplVoI9ZtiA7H9EYnE8YFyUyxqvClH9s8bt86Afu3wvPLBoLRJ/n5e2dCyBw7xDwNbUDpkm1c+aKFb9fyyITaPzn1fV3tNQfvrCpJ2ECivKRB4nWBRuR0FCslruq0CvEbQ8VyZw2MyR8QCVPN1FRNeF8BeFDC9rAB71Y3sDQ3Jtrysou2d08i2/P4TlvSvn654oGzwH2hh5pZxCc4tHQjPFYuNc0sJFrGQFJNxMMW5zSUGApEvITB8mS+h1MdGahE8BqAiR7wuigfmCtAp7pxbOpBEv3aYVzbEHigZtM4rG7DSzvTgIRe7t7yPLa/o+3on9lUV7a+qSNpBEBBMOhBcR9mIr6nSV2Nso1/GOZgYEH2Y8BoBe4Fh2usB9rKC7GUPsJc8wF5RwfayEuaxV93h219T4VevKoCP/EzDewv7Q3PLBsO0cPfrcJQOgLDFIt9fOoD3SwDuP6TH9RwByNzSAQElh2CAwxiVZx53KDKWa3ntqBi/5kBQvgayP55bOph5/6HBq+eWDrCVdT42r3TI+kCJwhaUqxysefR0/ptorypof5UmU0HHqwriqyoEuFYAhJa2yvtkjLTJpj4xFowcoUUtFRMksBcMpn0Ksn1uYC+6OVC2Tf/8GXtZBbbXE77+VQUKX1XhDIH0hg/hufYvQnPLdVjEIo4rhyIAjOvH5ho6Asl95riwRZ9uR8dDBNL9h3icfMe9h/qmzS0dZPeXDrK5pQO2+w8NsAeKaWcaYvd93TtRbHtFQfsrCpJ2vKIgvqJA4BUFQNpg2CpygKL7SPM+AgbNvrQD0k94ReXX+MZh2qsg2+NBluxC2o2sr6hgpZ3oI+S3uOdfVqH3FQX01xt8xQPwxgjik381gncV9MH9ZWLBDZEA3Ffaj/eVDmBUX1R/jF3SH9V/b+w489ixEr7v0EBAXo/kN/cd6l86t9TF7i3pY3NLB21zSwct95UNsPvKB9i8Q9/QThTbXlbQzrd+BR0vK4gvc5gEDC+r5As4XpbwcF8BELmRHF2MsUICL5th+gZ3JoKIbmV7aTfygOVlBWzk0270kgKPv6zAb19WQH+dwZcVCHPfA/CKhvB8bxDm17rwnhIODV/8ew/1m7SAg/sl/eF7S/Q+U25pP+q5kbEDcC9BUTqA9x4yJNJv1DHyA/ce6tfznPeW9Ccue/8Mu6+kn80tHbLeV9Jvvb94gN1fRCB9wztRbNvnATtt//s84NjnBtzngcBLHsB9boCXSDwA+4TwGNnUr/eRNvql/5IbUNYIUPwlDyTQQr7k+fr/rwE6F+1Vw2wfQeMGtlcB2wv8rATsZU/4jpcUeP8lBfAlBUlCL+kQKQgvyQ8JvY/XRhDW/t0pvDO/jxbfWOR7SvrhnkNSSswyAPdEYMJ7SErMvsgzw2auI0CS9YUEZT/VOnNPSX/WPSV9E+891M82/l9k9x0asN1d6GP3Vyvs/pKBb/6WNl57zY/21/xI2vGaH/E1PwZe8yO8LmxDXhcxoL7XRrkvZNTIoT6zDbIW+QnyGl8rTC96+C7EXhC7kS2z7Qzbq4TJnrTPA3n7FPhUgASwT4BEABFUIAVfUqlPwLbXBfjQEQ/cWdAnIYrAdLe+6MVkE0j9SDGzRMNmipkguptgIV1s5ITuLukP3l3C61Ff692HBqbfWzLA7inpY/ceGrDdW9jL7inqZ/eW9LOLqq3/4LR9/QenSbeu/+A0rv/wdGD9h6dx/QengcuHhkaTQFS/8M1jRN4HpwOyZsL6D/k1zjtMb/Qhe8ETZi+6Quz17hB7wQPWFxS0ElS1/+SnnWn3Xg/0ESBSgvsU5MDsE1BhREAKwl4PwKsjiFv+8QzMKejli04LTkDcpQMT499VLESH6a6SsYAZIoHU69xV0h82Q3RXSf+Hdxf3Lb370AC7u2yQILLfW9JvuadsgN1TPsjuK7wIdqLYNjvHaZ+d4yTdOjvHibNznIHZ2U6YnSPFbJ89RuNw1ti8wKxsJ87OdibMznay2dnO8woTAfOcguw5D7DnPWDZrdItLcxeUJD6Vu71wO/3KoB7PYB7FQzuVSDMfQnLXtp9xhUQQrdvFWHZLzS8I58DxQEheO4q6ZPw9HGYdJC4GDlc6yLz5Dhp3yn8oJ53Z3F/953F/Ulzi1zsruI+dvehAevdZQPWe8oGGZeSAXbXoYsQJGp3Heq333Won7TjrkP8DX3BtZg44DrWjpG7SweQT7Q+jqQ0qtZWeQ37+diJ9njCbI8b2W4XsD0kHrQ97w6z3SrQLjX7BQ/84kUF8EUFSUIvKhh+0WP4+KIC8KKHa1MMzf1C03nPh7Dj+Oe0yEBC80AAjJGSPoyN6bDcycf0R9sETkl/SPh87Cd3Fvdlzczrm3BXST97/JCPYLLh+8hm7Otmd9GvGDIvUoj0Nqe43z6nuJ+0Y05xH84p6gvMKe6DOUV9wDWfkH7dpzfNJ0309UvpwznF/Sh0ZNycYl6LYglzivvYnOK+/zRMu2k38gB7VgGybfv+8Bn/6r/HDTe84IHCFxQ484IH8AUF4QUFQi8QOAIO8oV4EF/wkI1oiMdkS+BEHGCfD3HlXw/D7LxeuPMQf7/jCH//pnkTeVFzVWTEQ3OK+4Jzivjc0Jy/N6e4b+qdxf1sdn4fu7uk38bnq6iP3VVMH8KLHCK9zSnqs9OLnlPU10pv7o6ivsAdRX3ApbgPuQibx/TJ02M6ZHPG5PRzMO8QNRPuKOpjdxT9+TDtdgPb1Y/slU5+W7O+oICVYohIt7jnX/BA3/MK4PMChiBB8zwHBEDEhH7eQ3EpUXHkY4VE576oISY7g3B3+QDcXhh5//KDIuYnRsxzRHMo/fAdxX1BPidibn89u6hvCe1EBM+d9MEu6rPcU9rP7ivrZ1Mu9p0ott1R3Ge/o7iPtEMufECH4nYpYoJ6jYkS8YhvACf6MDKm74vbdZgK+9gdhV8dJtqFdnvCbLcrzJ5zgeU5FWwUe1EB9rwbHt+jwD/skRA9r2BwD4eI+8Ch8CDuURD3ECwSoOd13wTSHoopABTnWoeJbDfA3mHEVf/nY5iV58Q7SkzzId+7PidR80Kx4l59bjhEcn6cdxT17byjZIDdXsx3H+uc4j7r7fwD188IrtsvxgP2n2q3F/XZ6U3cXtTn4G+0sDcgIUL6FM4ulBNVSBNFE9HLYZktfLNE93Hp++L2wl6qmXB7YS+7vbD3S8O06T/+yHbR7cwDurY9NxRmzylh9pwb5uxR4Od7PMCh2K1AaI8CYYJKACFg0GW3CRDq260I4eDI3N1jgDKPB9yjIjznApxb78JZ+U6+4xgAReaCv3+TTxI09X0yu7AvY2Zh3zW0U99eNkAfYuvk1HY2M7ub5odd0m12UZ99dlEfm13U65hd1IuzC3sDBEOUSEB4f1Efzi6KjtNECbuPYmgaG5hd2IezC/oSZhf2sdlfYmeirX12sZNNPtjFrkj4A5t3zG1zILJn3WH23FD4ht0eyN3tgTO7FSAACIoQ6ecIKvKFxt1KrEiIPIjPGUCJ+HMSpt16LKaf13cDvOBDXP+PZ2BmvhNmF+vvl88ZjCOh2YW9wdmF1M/n7L3ZRb3TaceZXdxPENn48UKcVy/NnSi2zSrstc8q7CXdOquwF2cV9gZmFfTCrMJzSFEfmn2avFlF4+YFZM0EeY1zwjQjr5dNzxpgN7+lsum5PdbFf+Wz3t80xA4hWp51w+7nPDDwnALIxYNBgoJAeI6AIEjI1vW5bN3n4/WxMNY2atP1hN6jISxwKDA9p4d/gGLnYlZBb5jPoXjfOKvQ+cHswt6ltxf1sllFvXQHsN1e3Geh2xvdEb5VbWZhr31mYS/p1pmFvTizsDcws7AXpA1RUhCjpS0nkvJ10fsDMwt6cWaBM2FmgZPNLBj7nIl2oukFTjaj8CSbWdDFphf0WGYUddtuO9DFHnC42b11g48m9od+Rwv7rAL4rAeDzyoI0gYp+CzvR4pFxOzTGA/IXNIAkTEmm/cJ4Ez58toAu72IW45/jrOK+6LnQcxFYGaBE/l7LuztnVHYm/RQnYs+ROz2Yqd1VmGvdVaRk80sdNLOdOkdsL8CTA4CYUaBMzCjwAkzCrgN0uaTxW2RwyeS4rzPNKnUr/uyFs4o6E2YUdDLZhRE70zTc3vZ1AInm1rQy6YU9BJItmkFPWx6UTebVdBz+8xC5y+n5zpx9W8/wT0jGEp2Q3iXWGTcpSBIIRt3eaSYbd1XYm3g4wgO3d7Ftck2xTlgcmyyG2DPMOLiv/DB1KwemFnE32twRkFvmECaUdh7ekahM2tqdufVMwt62fLDKptV6LTOzFfYLQWDbCadlb4Nt7Tx2owCp30G7QwFzlYOUGFvYLoEaEa+E7hd2ItGjAsHRLcN4Dhohc5IbmFvgNfMdybMyHeyGfmRnWlqvlNIQS9p27WVfja9oJtNLTp53YwCZ8GMfCctCk7L7QnfWTMY2tEXgl0qYrJc5GSPEB0QbkvfiMuciA8gfIJF9wGSeQ3gMbK5r/dH2SDGqgjbeoJ4R3l/aFpeT5C/73yaE+d70/Od02k+p+XRTttrm57fw2YWdbOZxT3fvp0otk0v6LVP57tCb+v0Ag4Ch0lIr9ROnMbtXpieb4qb7QIBXGQcj1MtnF7QmyCvYZ+S18Nuy+5kP0j/iE3Nc1qn5nVbp+Y52bU1Lsu0fOcL0wucfXxMPpfAjEInTM7shuX/ww+7RxCT3GKBkz20sHLxx9MmMHRJkiDpOUl6XAFIGlPDuA4HzhhL49wQ3j2CwZV/dwqn5PTQB/DD6QU9S2bTe6QPTYHTNoNu18Jm35k2rcBpn0afpAKnYxpBk+8MTMt3wrQCk+SbhIMV45v7o3OpFk7LcyZMy3OyaflO++TcbjY5r9syOc9pI7Cm5XazabnOx6blO38ra1O94LR8Z1i/ztQ8J84s6YPNHV/gLg0h0Q0cjCQPYKKEIkp4H0b3iXwQNsEhADG0YvKNHKoBkBidG6TrJqmI2/pCzjurB5OS25BNzupmswt7rdPzndYZhT1sVlE3B+s71abmO+3yluOYmu/EqfnOwNQ8J0yVQEzN64Gp+STOiBTwPOR5MpfniLg5N8DzCpwJ4mzktE/O67bdlnuSTc5zsil5zjlT83t+MTW/R9QrcIam5jvD+nh+fQn2rZndsOCXGu7yIex0g77IuFNCczbRoRJCYyKARPsYnadE1aHcoNTU/0miB9J3ncEJd9UNsV8i0pcI2235vWx6XhejW9uUb+u56FxtSl4Pv/VMyetpnZLXg1MEADCFIJKwTOHSA1N43ElaLL5c7CkSJtHfI3N7IjDlO7dOI2DznLbJ+d3sttzuGybn9eRNyes5Q/1T8noIoBAfT37kOlSXX2dKPr22Hnz6Xz7FJC/CDjcHCXZKoMxCAETFFCncBxA20FgwYh5Tv6EpF0I7PRiUMdzhgdbt7vCMRPrNFCC7/5jbdv0rH7HphT2Mvjx8p9sYmPJ6AgYQwueLOjmvxxBTv77IEQjI5+M4WFSL4lsn5/ewqQU9l03O79kzOa9nYHKekRecotfVgcx3orhOBN4pBU6k3enuZhckqkiLCjvE4uIOD0ZEgkM2ARDdR2PkWJkj68A4dniHB4KRa8AH292wJMkLbIc7zJI8YNvhDlsS3WFGkqDAhV7KC98m5/XYJ+f1kG6lBZ6c1xOQOgqg23SdGx03940jeq1Nt+Z2339bXvc/Tc7tJh8n5/YEJuf2hLmd7+Q1bsvrQZLJEqZocQLl3ZLVDSs++BgSfYjb3QDbPcih2h4DzvZxbNLbJSykhUTi2yM6aIr3bHdD8nY3su1uYMk+sO50h0nYTg9wiTfZbsvtsd+W20O69bZcvpgBWtBbc7s5OFEiYeKLntuNRmysUB09n2odvy2353Mxrid4W25PSNqRunk9cKv5GuNdO68Hb8k6CTMr+iFhMIzbFYRtbgHSNmPxhb3NHfHN8YgNQDlcC4BgmweC20i7geJntnkga8tQeOJ2+tnLCLIdHrA94wS2a0jsRuv7MM6Rud2a122/Na+btOPW3G68NbcncCuHSSwuQXUrAREVM+JCSxBuNaCgOjzOoeLjRe2gaYysR9B2m+rIuhLo2GtSvZvTu2DRfx/GHV6ErW4BwzYPASCA2aoDJe2tbrNPuTpEQm/1QGibB0OyH7e64adb3TCVINoyFOIQ7fAA2+4Okx0H6Gztltwe+y25PaQdtIC35HYHbpEA3SKEL+ItOd1A8Yj0xNi6r48TfbxOTnfolpzu8C253XiLuEbUWALF5KOpZowtXsuPsrvhtoIeWN8VwO0aQoIbCBqCQsBzboEEDpAAa6sHg9LGBA/8+hk3LN3uQbbVDWy7B2wJ7rBluxJmOxTaieIgnbPdktNtvyWnm3QrLfaPcroDP8rpBi764pKdLRY7Eue5aPgEm7AJAC56n1FPAhnry3y9Nur1YvN1+5a8bvhBehfc974K2zTEZ9zAgUrgQCAmuFHoKAEOkcjjQAVFPmCCG5wJbkjcqyJLcIfZdjdat7rBmuAKc6i2ucNsqxK/pf3J9qPcbvuPcrpJt0o4OEw3mxb85mwTALmi72a56GYwosbo40xQ3TxOXqzIukL0Omep/8Osk/DkH/4I23wCqGc8XCPXunCwZB/XEHzGg6TJ/+QZN2Q+MxS6JsEN7E0fwcR3Iw4VxeLtK7Sbc7rtN+d0k269Oacbb87tDugLKIA4GbFNkEgbY/pi/YjkduO5a5n7xsnT41RH1IOb0rvg9sYh2OziAMEWD+AWD8AWD6IQ3eYQhbZ4kAS3uIHEsckDUxPoXOQKcYg2EUAuIes88Z3oK7cfZp+0/zD7JGnHD7NP4g9zugM/pE99Tjf+MPskcOG+bkud3S1EzxVajuuOzjXGxNjmmD7efM3xxvK46COgvp/WhUs/+Bi3DiNucgFsFrAQWNzeLHRQ2rjZDb/e4govS1CBbXIDS6BvaO6w5Rm5Gz0T343+/PaD7JP2H+ScJO34QfZJ/EH2ycAPsk/CD3JOAte6ZEmdcxINW+TDuJLTjUb+ufIitURuDgEdkx/7WqhelgDrpswumFLeB+t6Q7BZQdzkBtjkEXqzGzhEmwREzs0eSEzyIdtCZyANrJvdYOEAuYBt4Qfs+G70n2o3ZZ2035TVxW7K6mq9Kfsk3pR9MnBT9km4SS7aTVkngUt2l9QRAAxf5hvjJAzcF7m6T/XHHRdbb0zN2L4I3DAptQPm/7/DkDCCuNFFMEFwkwdhk5tDdXqTG7I2K+EJm+kfJ5wimMC2sQ/YpsEw2+yKn4vOW7sp+6T9puyTpB03ZXF4BExZXWLhs0/C97O6TML7BBikxSJz6HhfdoxPekwdGefju4wcnidzzCBFXUvWNerQuMwuuLmwB55q/yK8WcPQRjfgRg/gRje0bhgKT93oBrbFE2ab6VzkCrPNipD4TnSe2/ezuuzfz+oi3fr9rJP4/eyugL5QJkEzUN/T7ewujOR0xeYLySZbxL+XqY811cuUNbOpnrmO9IUY+Xw85eo1RV74+tSOwJz3PLhJQ9zggl+vd8GSTS5kG1xhttEDts0esGx2h9kmOnC7w2xd/G9p57/dmNllvzGzi3Tr9zK78HtZJwPfyyLdBTfyxacFE4tmSKbeN6Yf9bGRPl7TAGlcPbaWrHFS12cfn9UVpLwbM7rwB/ndPSv/4487J7707yzhFLJNLrRudIUtT7vC7MkhiN/SvkGYHDdmduGNWV2BG3WQJDRCOkHGMRKTYgJvTJ/er4sp/8ascWuJWNY5+sX44I2ZXWH5ek5/L6src2LKiQlPtH/O2Iz/zTbQuUilXSnMNsT/BPLNtEmZXfZJmV2kHZMyu3BSZldgUmYXRKRTShdMyuL9MX1mX8YkBGftHxM3+eZrjLkehyg8KbMzKPtwUman48bMjhnfyzrJLn/939nKj/5o2/kFsrUDIbbeHf6GZjHeeLshs9N+Q2Yn6dYbTDDdkNkJ5EvNF/IGQygm4qT1hZc23pDF80jjJG6L+Hg1CKTYeqZryjE8JiASr4nkw0lZnUtvzDjJbszsZN/LPGmblNVpuf5gO5uU0cl+VNodP2BfSJiuF4sU0Bf0eqHx+swuvD4mFll0Iybh6yKf6/EhGTMGrs8QvlFb+no9+Zp0iJzXZ3Ym31zUwyZldrJJGSetN2Z2Wr+f2c1uTqUdtuMbn8N4k+26jE77dRmdpDlM12d0Brimxc0YVzCmn9vX6f3mcWPsLrguc0wcx80XErxewnl9Rucn12V0pl9/4MSEGzK62OziIfoA2L6X1c7oFndj1kl2Xea/xdf1YoHpuoxOvC6jM3BdRgdIm4SDErGpj/f/KTGP/aoSkqK/hveuy+iYdn1GJ7v+YBu7IaPTdm1GB7suvYNdlxHfiS6adm1Gp/3a9A7Srdemd+C1GZ2BazM64dqMDrg2vUNo7ndSn4xxX+bwGPK43mfkCCiNmDmH143N7wxfm94RvDaDXgfV7Pzg2vSOJTdmnmT0Gq/L6LRdn95uuSGtk5FcF7+lXVztmvQO+zXpnaQdBMU16R2Ba0hndMI1cvF12yzXpnditM/HQmSsEIKQ90sdM8bsi+sKcV6T3pF0a0oXvS76pmm9NqPDelVGB7vxXdpF47vRRdmuSe+UMHW20kJOTO8ITDQWmAPAIZhoSKdhR8ejY2ZoIn0cSgMqmRfkdloHTkzr+HhiWnvm1Qc7Jl6T0cmmpJ0kmGwT0tvYhIx2dk0coou7TUzrsE9M7yDdOlGHKY0vrg4BToj41G/AQfEJ4wA1Ia1dz0Vp81y9Jh+T1hGamN4RnCAgInFcnd4xbWJGF7s6tZ1DdHVGB+OvLQ7RpdEmpLXbJ6S1k3ZMSGunxQ/QAhMEwhcwST9GJFBpHXC1HpOwRMbxWiji7Xh1Wnt4QlpHgGxZ/4Or0zqXXJPexa5Oa2cTM7psEw92WCamddBuySYcjN/SLpl2dVqH/eq0DtKOq9M68Oq0jgCBweWg1GbhMQEP1yKHxhEoMfm8nuzn8AVlHonz6rT2REuuk0CmA7Z1QlqHxVaO7Oq9/8QmHGhn12bEv+pfUu2qg+32qw62k3ZcldaOV6W1B65Ka4erDrbjVQe5Bu6LGMgcYUuQeMycx6XD7AelprxPrkprz7antk0giFneIJuQ1mGj13D1wfb4TnSpw3TlwXZ25cH2VlrsKw+2BwiMK3WQpM19HYi0SEyPj+dfdbA9dFVae+jKg7wugeS4KvXENLqdXZZKt9YO2zUHT7AJBzq4XBffiS7tduXBNvsVB9vYFQfbWmnBrzjYHrjyYBtccbANrjzYRhDAFQfa4MoDApArTNBcEe0j5en+FQfagjpEVx5s/82VB9qXXpXezq480EY7qOdsHwAAAydJREFUkO3Kg+2WKw+0sysOdLCr0tov9DTE2/loVxxst19xsJ1dfrC99YoDHIjAFQfaSBNYEhjDxssJGF0kaLpcfqAtTDCK8QRmW/cVB9oSf5DyEe187Kr0DutVB9osllKFXZHWSbtifBG/Te3yg+32ywVMjssFLAEC5vKD7XD5AfJ1zWE5lwSlptzTlx9oy7K/0zGBat/6dhvBZLsqhd9OGe1I8fYtbJcdaLNfdqCNtOOyA214WWpb4LIDbcBtoc8uqVyHLjvQFpT5NN5x2f4T0y5P7WD2lBMEqe0yOiNx6aCd8EK/5Xj7upo9tc1uT20j3WpP5UAESNtT28AuodJte+oJoSl2oC1sTz2h56I99cSv7aknltjSOtllKcfZ5anttsup7oF2dllKB7viwImv7T3E20UEky21jdlS2xwEhS31RMAmtICHQEptA/JtqSfQJuygzEFbyokeW2pb4lWZ3cyeepzZ0jqsl6WesLDln7Grcv6ZXX7g+IV+i/H2TTVb6gm7NbWNWVPbjkg4CCYOj1UAFJEUgojsNrSmnDhjTTmRYXn7o4m21BNsQj7BdMJ29Tv/zi5L/YhdlhqH6DvXrKknbNbUE6T3WlNPECQBawqB1MZh4nbKiZA15UTQmsL7SRzW/cen2lJOMPbucQLSZiO9X8hlKW0X+m3F24Volv3HmeXd48zyzvEJlpQTJy0pJ9CSciIgJWhJORGSMZIPLPuPL7UdaGfWFAGRdf8JC0s5ziypHzF7Svxw/Z1uq99FZklps1r2tzG2//hclnJ8kKUcR5ZywixOS8qJpCvT+jh8ttQ2qzXluBVfZYyltNH4C/024u1iaJendjMrB+KEle3/iLF3/+Natv/4GyzlxM/Z/uMOtv/4CyzlBO1a7MqMfmZJOW6z7v+IWfZ/xEjHW7xF2v5/Y9bUdrG77P/Iyt75D0a3LUYPFvcfFzbdClNO2Ng7/8rYu//O2H7KiX/Vj7fx2n4Ch+9KOkB2dqDdyvafsDKCaP8JZk0/yVgqvxXG5zDevkR7/d8Y+5+fMFbbz9i7HwlwKnoZ+8fPGXsj/tsi9i1v/z9ooZ8IMRcEPQAAAABJRU5ErkJggg==;fontColor=#000000;" parent="1" vertex="1">
                    <mxGeometry x="486" y="448" width="57" height="57" as="geometry"/>
                </mxCell>
                <mxCell id="20" style="edgeStyle=none;html=1;entryX=0.016;entryY=0.422;entryDx=0;entryDy=0;entryPerimeter=0;fontColor=#E8E8E8;strokeColor=#000000;" parent="1" source="10" target="6" edge="1">
                    <mxGeometry relative="1" as="geometry"/>
                </mxCell>
                <mxCell id="10" value="Azure Logic App&lt;br&gt;Save Transcription" style="aspect=fixed;html=1;points=[];align=center;image;fontSize=12;image=img/lib/azure2/iot/Logic_Apps.svg;labelBackgroundColor=none;fontColor=#000000;" parent="1" vertex="1">
                    <mxGeometry x="483" y="638" width="67" height="52" as="geometry"/>
                </mxCell>
                <mxCell id="23" style="edgeStyle=none;html=1;fontColor=#E8E8E8;startArrow=none;startFill=1;strokeColor=#000000;" parent="1" source="16" edge="1">
                    <mxGeometry relative="1" as="geometry">
                        <mxPoint x="346.5" y="154" as="targetPoint"/>
                    </mxGeometry>
                </mxCell>
                <mxCell id="24" style="edgeStyle=none;html=1;fontColor=#E8E8E8;startArrow=block;startFill=1;strokeColor=#000000;" parent="1" source="11" edge="1">
                    <mxGeometry relative="1" as="geometry">
                        <mxPoint x="493" y="297" as="targetPoint"/>
                    </mxGeometry>
                </mxCell>
                <mxCell id="11" value="Azure Logic App&lt;br&gt;Convert To Word" style="aspect=fixed;html=1;points=[];align=center;image;fontSize=12;image=img/lib/azure2/iot/Logic_Apps.svg;labelBackgroundColor=none;fontColor=#000000;" parent="1" vertex="1">
                    <mxGeometry x="313" y="271" width="67" height="52" as="geometry"/>
                </mxCell>
                <mxCell id="13" value="Transcription&lt;br&gt;Word Document" style="aspect=fixed;html=1;points=[];align=center;image;fontSize=12;image=img/lib/azure2/storage/Storage_Accounts.svg;labelBackgroundColor=none;fontColor=#000000;" parent="1" vertex="1">
                    <mxGeometry x="496" y="265" width="65" height="52" as="geometry"/>
                </mxCell>
                <mxCell id="14" value="OneDrive&lt;br&gt;For Business" style="dashed=0;outlineConnect=0;html=1;align=center;labelPosition=center;verticalLabelPosition=bottom;verticalAlign=top;shape=mxgraph.weblogos.onedrive;fillColor=#094AB1;strokeColor=none;labelBackgroundColor=none;fontColor=#000000;" parent="1" vertex="1">
                    <mxGeometry x="310.9" y="70" width="71.2" height="43.2" as="geometry"/>
                </mxCell>
                <mxCell id="22" style="edgeStyle=none;html=1;entryX=0.045;entryY=0.577;entryDx=0;entryDy=0;entryPerimeter=0;fontColor=#E8E8E8;strokeColor=#000000;" parent="1" source="21" target="11" edge="1">
                    <mxGeometry relative="1" as="geometry"/>
                </mxCell>
                <mxCell id="21" value="Http&lt;br&gt;Request" style="sketch=0;outlineConnect=0;fontColor=#000000;gradientColor=none;strokeColor=#232F3E;fillColor=#ffffff;dashed=0;verticalLabelPosition=bottom;verticalAlign=top;align=center;html=1;fontSize=12;fontStyle=0;aspect=fixed;shape=mxgraph.aws4.resourceIcon;resIcon=mxgraph.aws4.http_protocol;" parent="1" vertex="1">
                    <mxGeometry x="147" y="271" width="60" height="60" as="geometry"/>
                </mxCell>
                <mxCell id="16" value="Word&#10;Template" style="shape=image;imageAspect=0;aspect=fixed;verticalLabelPosition=middle;verticalAlign=middle;labelBackgroundColor=none;fontColor=#000000;image=data:image/png,iVBORw0KGgoAAAANSUhEUgAAAgAAAAIACAYAAAD0eNT6AAApoElEQVR42u3daYxc2Xne8efequq9m9uQw+HW3GdfOJzFlh1rNDJkJEiCBLKt2JGM2LLk8VgTxfEHO45hGI4TIBAgb5ATB/IHQZKVyEHiAEI2WJmFnIXkDDkr930fks3eq7truScfyB43e3qpqr7nnnvv+f8+CBouXW/XDHmfOuc975EAAAAAAAAAAAAAAAAAAAAAAAAAAAAAAAAAAAAAAAAAAAAAAAAAAAAAAAAAAAAAAAAAAAAAAPBR4LoApNenvzPwgAnMsyYIdinSfQrVL6NuSctd1wYAnhhSoHFFOqdQR01kDhYUvPjDz686vNQvTADAHX7iu9d2FFT8Z5L5vKRNrusBAMzpnJG+raj+rZe+sOZkK1+AAABJ0qf/8uYjkTG/I+mzkkLX9QAAGhJJ+itTD/7gpV9Y+X4zv5EA4Lmf/P7NZfWK/o0C87ykgut6AAAtqQXSN9qNfvd/fX7VSCO/gQDgsWe+d/2JIAr/i6StrmsBAMTifBjon/zw51e9vtgvZKnXU89+Z+BLQRS+Jh7+AJAnmyKjlz71nYFfWuwXEgA89Knv3vhtE+jPJZVc1wIAiF2bAn3z2b+8+VsL/SK2ADzz7HdvfMUo+FPXdQAAEhDoN178+VVfn/un4I1nvjPwuSDQ98S/dwDwRWSMPvfS51f919k/wYPAE898+9r2ICy8JanPdS0AgESNKYqeePELq4/N/EF6ADzwM983hSAsfE88/AHARz0Kwm/93u+ZO575BAAPDFQHflXSE67rAAA4Eujpl3cM/vKdP4Rc+7G/uN7b1hGelbTSdS0AAKdulOrVzf/3F9aOS6wA5F5be+FXxcMfACDdVQlLz03/AwEgx37m+6agwLzgug4AQDoEgb463QtAAMixgcrNT0va4LoOAEBqbHxl58AzEgEg10ygn3VdAwAgXYwJPicRAPLu064LAACkTfCsxCmA3PqJ7w1sLEQ677oOAED6BDWzgRWAnAqNHnRdAwAgnYJS8AABIK+M7nVdAgAgnYzMfQSAnApNsNp1DQCAdDImWE0AyCkTmF7XNQAA0skE6iUA5FeH6wIAAOkUGHURAAAA8BABAAAADxEAAADwEAEAAAAPEQAAAPAQAQAAAA8RAAAA8BABAAAADxEAAADwEAEAAAAPEQAAAPAQAQAAAA8RAAAA8BABAAAADxEAAADwEAEAAAAPEQAAAPAQAQAAAA8RAAAA8BABAAAADxEAAADwEAEAAAAPEQAAAPAQAQAAAA8RAAAA8BABAAAADxEAAADwEAEAAAAPEQAAAPAQAQAAAA8RAAAA8BABAAAADxEAAADwEAEAAAAPEQAAAPAQAQAAAA8RAAAA8BABAAAADxEAAADwEAEAAAAPEQAAAPAQAQAAAA8RAAAA8BABAAAADxEAAADwEAEAAAAPEQAAAPAQAQAAAA8RAAAA8BABAAAADxEAAADwEAEAAAAPEQAAAPAQAQAAAA8RAAAA8BABAAAADxEAAADwEAEAAAAPEQAAAPAQAQAAAA8RAAAA8BABAAAADxEAAADwEAEAAAAPEQAAAPAQAQAAAA8RAAAA8BABAAAADxEAAADwEAEAAAAPEQAAAPAQAQAAAA8RAAAA8BABAAAADxEAAADwEAEAAAAPEQAAAPAQAQAAAA8RAAAA8BABAAAADxEAAADwEAEAAAAPEQAAAPAQAQAAAA8FcX6xLV98td+E9U8FgXbLBPcqMFukYJWkbkltrr9ZIC+CMFAQhgpLBZU6Sip1tamtp1MdK7pVbC+5Lg9A+v2n4lK/Qv8vv7wlCMNfCKSfl6KdwXSmCD76HwAxM5GRieqKanXVJiqaGByXNChJKnW2qXvNMvWsXaZiB7kbwNxafkJv+ZU9j8roNyT9U7GVAKRPIHWu7NXy/rvU3tvpuhoA6dL8CsD2X35xQz0s/ZGM+azr6gEswEgTA6OaGBhV9+o+rdi+VsW2JS/6AciJQjO/eOuX9jwfheFfS3rMdeEAGlctT2n0yqAKxQKrAQAk6a2GPg5sf+GNvvpk9S9MoJ92XTGA1ph6pIETVzQ5XNZdO+9RUGDnDvDZoisAm59/ca2p6m8U6FnXxQJYuur4lMoDY+pa1auwSAgAPPXWgn/6t3zx1f6gVnxVLPkDuVIdn9TVd86qPlV1XQoAR+YNADu//OJdKkT/W9JW10UCiF9toqIr75xTvVp3XQoAB+YMANtf+J/tVRV/IOk+1wUCsKc2UdG1Dy5IxrguBUDC5mwCrE/2fU2Bedp1cQDsmxou6/rRyzdXbF7zoetaACSjXqvXPjYIaOuv7P17xpgfiDF+gFc6lvWq0MYYYcAXd5wC2PDrr3WGlegHkla6LgxAsuq1mkod7VJA9gd8cEcPQNt4/TdF0x/gJVOPVJ2YdF0GgIR8FPW3v/BGX32qek7SctdFAXAjCAN1rlymIGA+AJB3H/0pr09VviIe/oDXTGRUnay4LgNAAm4HABNIwRddFwPAvfrElOsSACQglKTNz+39pNj7ByApqtcV1WquywBgWShJQaR/7LoQAOlRYxsAyL3pHgAu+gHwkXqVOwKAvAvX/9q+VZIedF0IgPSIanUZxgMDuRa2TVUfEFP/AMxialwSBORZqCDiwh8AHxPVCQBAnhVNEKzj4z+A2WoTI4ompxQWOxS2dSls6xSLhUB+FAOp13URANLH1Gqq14ZV17AkKQgLCjt6VexcrrCt23V5AJaoGBjTbbj8A8BsJpr1j3XVy0Oql4cUljpU7FmtQkef6yoBtCg0DP0G0KSoOqnK4AVN3TitqDrhuhwALeDhD6BlUXVCUzdOqzr6oSSODQJZQgAAsGS1sRuaGjgrE3FyAMgKAgCAWESVsqYGTsvUuEwIyAICAIDYmFpFUzfPydS5SwBIOwIAgFiZevVWCGA7AEg1AgCA2JlaRZWhC6IxEEgvAgAAK6KpcdVGr7suA8A8CAAArKmO31BUnXRdBoA5EAAA2GOMqiNXXFcBYA4EAABWRZWy6pOjrssAMAsBAIB1tTF6AYC0IQAAsC6qTiiqlF2XAWAGAgCARNQmBl2XAGAGAgCARESTo2IuAJAeBAAAiTBRnW0AIEUIAAASE02Nuy4BwG0EAACJiaoTrksAcBsBAEBiIq4KBlKDAAAgMaZeFY2AQDoQAAAkytRrrksAIAIAgKSZyHUFAEQAAJAwY9gCANKAAAAAgIcIAAAAeIgAAACAhwgAAAB4iAAAAICHCAAAAHiIAAAAgIcIAAAAeIgAAACAhwgAAAB4iAAAAICHiq4LaMTfeWC5vvXVhxJ9zU/85n5dHaq4/taXZP2qdu35d08m+pqf+K0DujqY3Tvff2rXKv2H5+5P5LXOX5/UM7/zputvGYCnMrEC8NapUdXqyV4g8uiWXtff9pI9tWNZ4q+5K+Pv2xPb+xJ7rT2HB11/uwA8lokAUJ6q671zY4m+5mMZf5BJ0pMJPsymZf19SzIA7D0y5PrbBeCxTAQASdp3YjjR18v6g0ySnnSxArA1u+9bZ1uoBzb0JPJa9cjotaPJ/jcNADNlJgDsP57sX5YP9/eoEAauv+2WrewtaevdnYm/7kP9PSoWsvm+Pba1T6ViMrW/fWZUoxM1198yAI9lJwCcGFE9Sq4PoKu9oB3rulx/2y17ascyBQ6ewx2lUPdt6Hb97bckyS2TvYeHXH+7ADyXmQBQnqrr/fP0ATTKxf7/tKw2Au7eRgMgAH9kJgBI0r6EtwGyHACe2ukuAGTxfSuEgR7bksz+/0i5pnfOJhtmAWC2jAWAkURfL4sPMknq6SjovvXuluGz2Ah4/4Zu9XYmMxbj9WPDiW5nAcBcMhUADpxI9i/O7fd0qaej4PrbbtoT2/ucNjD2r+7Uip6S67ehKYke/2P5H0AKZCoAjE3WdfjCeGKvFwa3TgNkjYsBQDMFgfTo5my9b8nu/w+5/nYBIFsBQEq+DyCLEwGf3OFu/39a1rZPdm9Lpt5z1yZ1/sak628XAAgAi8nag6yjFKZi1WLXVvchpFGb7urQ2hXtibwW3f8A0iJzASDpeQBZCwCPbelVW9H9v9bHtvQoK3OUGP8LwEfunxRNGp2o6eil5PoA1ixr0z0JfTqMw1M73e7/T+vtLGrb2mwMUtqdUACoR0avH2P8L4B0yFwAkKR9Cf8lmqVVAJcDgGZ7LCPHAZNaATh0mvG/ANIjmwEg4XkAjyY0IGapCmGQqjP4WQhOy7uTW6lg+R9AmmQyABw4Oawk56hk4UEm3Tqy2NWenrkFWXjfntjel1ivAuf/AaRJJgPA0HhNxxLsA3i4vzcTNwO6Pv8/28516R+klNT5f8b/AkibTAYASXojwT6AzrZQOzNwM2Aazv/PVAiDVBxJXEhSPROvHR1i/C+AVMlsANh/gkbAmYJAejzBaXaNSnMjYFsx1EMJBRT2/wGkTWYDwL7j9AHMtHNdt1Z0J3OZTTPS/L4lOTNhL+N/AaRMZgPA0HhNJy4n1weQ5geZJD2VsuX/aY+neCJgUlsmZ69NMP4XQOpkNgBI0hsJjgXelvKbAZ9MWQPgtFW9JW1Y1eG6jDkl1QDI5T8A0ijTASDJeQBhID28Ob2rAGkaADRbmmYTTAsD6fGE6mL5H0AaZToA7D8xLJNoH0A6O9r713To7uVtrsuYVxpvVLx3fbf6uuz3TNQjk+hKFQA0KtMB4OZoVSevlBN7vbT2AaTt/P9su1L4vjH+F4DvMh0ApGSvB05rAEjz8r8kPbipOxU3FM6UVADg+B+AtErX38ot2JfgPIDVfW1atzJ9NwOmfQWgrRjqwU3drsu4Q1IBYA/jfwGkVOYDwBvHku4DSNcqwJplbdq0Op1d9jOl6X1bv6o9kSueR8o1vcv4XwAplfkAMDBa1amr/vYBPL0zvk//xtzqq7AhTe9bUsf/GP8LIM0yHwAkad+J5I4DpulBJsW7/39lcErffvmKlTrT9L4l1TPB+X8AaZaLALA/wUbAh/p7VCyk52bAp2JcATh+uayz1yas1Lnxrg6t7kvHUUUaAAEgJwEgyZsBO0qh7l2Xjoa25d1Fbb8nvlsKj18e19kP7Y2sTcMqQF9XUTsS+Pd39tqELjD+F0CK5SIAXB+p6PSHdj65ziUtA4Ge3L5MYYyLEScsrgBI6QgAu7f1xfqezYflfwBpl4sAICU7DyAtk+3ivszm+OWyhss1DY7bGVyThquBn0ioAZDxvwDSjgDQgjR8kpXiDQCRkU5dvfXp/6yl1ZRHN/eokMTH7wUksf/P+F8AWZCbAJBkH8C2tV2JzJFfSFd7QQ9ujG8r4uLApMpTdUmytg3Q1V7QjnXx9Sw0q60Y6pHN9rdvDp5i/C+A9MtNALg2XNG5a8k0XQWB9HC/2z6Ax7f2xnoa4cTlv52lYLMPwOW9AA/396i9ZP8/+b1HmP4HIP1yEwAk6Y3jQ4m9luttgCdjHv97/NLMAJDPkwCc/weAv5WrALDvuD8DgZ6KuwHwyvhH//+MzZMADhsBdycQAIbLNb13jvG/ANIvVwEgycYrlwGgVAz0yOZ4X/+OLQCLRyq3r+3SMgf9E0EgPZ7ACQDG/wLIilwFgKuDUzp/PZk+gFW9JW1Y5eYSnkf6e9XZFt+/ulrdfHQCQJLGJuu6NlyxUrur/ont93RpRbf94MHxPwBZkasAICV9HNBNI+BTO+M//z9Vje74sWOX7F2wtMvBNkBS+/+M/wWQFQSAJXC1DfDk9ngbAA9f+Pie9bFL4y18pca4eN+SOP9/5kPG/wLIjtwFgNcTnAfg4kFWCAPt3hbv635w/uMPe6sBYGufgoTnASURAOj+B5AluQsAVwandHEgmU9hD27qUamY7JPs/g3d6u2Mdy/7/fNzrQDY2wJY0V1U/+pOa19/trXL2xLp1+D8P4AsyV0AkJKbCtheCnXv+mRvBoz7+F9kpKNzfNo/frlstZs9yT6AuGcmzKUemUSnUQLAUuUyAOw/kd95AHE/zM5em9D4ZP1jP16pRbkZCLQ7geN/b50a0dgc7yMApFUuA0CiNwPGfB5/IUEQ/172B+fnH1pjsw8gyZHASez/c/wPQNbkMgBcuDGpSwNTibxWkp9kt63t0qreUqxfc64GwGk2A8B9G7pjnWUwn56Ogu5db/8CIhoAAWRNLgOAJO0/kcwqwNa7OxObbBf3/r80dwPgNJuNgMVCoAc32Z+jsHtbn/UriIfLtQXfRwBIo9wGgKS2AZKcbBf3+X9JOnJx/k/5Ry/aWwGQkmkETGL+/6tHGP8LIHtyGwCSvBcgqY72J2NeAbhwY1KDY9V5f/7iwKTVxrYktk+SaABk+h+ALMptADh/fVKXbybTB5BEI+D6Ve1at7I91q958NTogj8fGVld2n58q92Hc7EQJBIyXiUAAMig3AYASTqQ0HHAJB4yT1k4y37w9OLvz/sWr7a9e3mb1q6IN9TM9HB/j/VGw9OM/wWQUbkOAPsSagRc2VvSxrvsTpqzcZnNodOji/4a23fb2wxPyYz/ZfofgGzKdQBIcjKb7VWAp3bGuwJQnqov2AA4zX4AsNdAmcj+P8f/AGRUrgPA2WsTujpk51772R61GABW9pa0ZU28s/PfPTfWUOf6uesTGinXrH1vu7bYeUgHgf0AUI9MokOnACBOuQ4AknQgoW0AmysAT+9YFvvteYdOLb78L0nGLDwtcKke3tyjYiH+c/pb7+6MfWjSbIz/BZBluQ8ASX1Ce2hTt9qKdt7OuI//SY01AE571+I2QEcp1H0b4r9Q6QkLMxNmY/kfQJblPgAk1QfQVgytjZyNOwAYIx0609gKgGT3KKBk516A3dvsn8xg/C+ALMt9ADj94YQ+TKgPwMY2QG9nUffFfOXwuesTujlabfjXv3c2eycBbExNnInxvwCyLvcBQJIOnMzuPIDd23pjn2V/sIHjfzNdGJjU4Li9RsC437e7+krqX2P3WObew4z/BZBtXgSAfceGEnkdGwHAxgCgQ6eaC0TG2B0ItHlNp1Z0x3ehku1P/xLjfwFknx8BIKGJgJvXdKov5psBH7ewl93KPQmHmmgabFYQxHuMMon9/71HGAAEINu8CACnrpZ1Y6TxPe9WBYFiveK2EAZ6KOYrc68NV3T6w4mmf9/bTTQNtiLOAPC45fP/p65O6NJAMvdMAIAtXgQAY6T9Cc0DeCTGq4Hv39itrvZCrPXtOz4s08LW9cHToy39vkbFdaFSRynUgxvtXs/Mp38AeeBFAJCSnAcQ38PHxvG411s8FjlSrunMteZXDhoVV3B6eHOPSsX4BwvNxPl/AHlAAIjZwzGuAOzaaiMADLX8exu5PKhVK3tLWr9q6TcD7rZ8xXCtzvhfAPkQb8daip24UtbAaNX6eNiNd3VoeXdRQzEcm4t7Tv6HQxWdu9b61bVvnx7RZ390Taw1zfRIf++S99Z3WW4A9Gn879TYpCYHb8b+dYtjvQqK9q6BBtAYb1YAjEnmXoAgkB6IYQ96RXdRm1bHe5b9taNDS/r9zUwPbMUjm5f+vtm+lZHjfwDywpsAIEn7jidzHDCObYBd2/pivwColeN/Mx27VFZ5yt6n36X2AfSv6dDqvjZr9UnSnsM0AALIB78CQEInAeJoBLTRALjUexHqkbF6MdBD/T1aytBD2/v/w+WaPjg/bvU1ACApXgWAY5fGNThmfx5ALCsAMTcAXr45pQs3Wt//n/a2xUbA3s6iNq/pbPn377J8/n8P438B5IhXAcCYZO4FmG4EbFUYSI/EdC5+2lL3/6fZPAkgLe373m3h1MRMe1n+B5AjXgUAKZnjgEttBNx+T5d6OuIfABSHQ2fsBqhWGwG7Owrasc7OdczTaAAEkCcEAEuWsg2wy8JedlwNkDdGqjp/felbCfNpdQXgsS3x35o406mrE7p8k/G/APLDuwBw9OJ4LGf0F7OURsC49/8vDUzp4kB8D+23mrxNsBkPbOxu6UFuo2lyJsb/Asgb7wJAZKQ3E+gDWNoKQLwPs6VM/5vLQYt9AB2lsKWlfBtTE2faw/hfADnjXQCQktkGaLURsLezqG1r493L3h/zdcg2rwaWWls9ibtpcqZqzSz5CCUApA0BwJJWGwEf27K0s/BJfL/HLpWtjsN9cFN3U79+010dVkc8v3V6xOoAJABwwcsAcOTiuEbK9vsAWtkGeDzmBsArg/Gc/5+pHhm9e9beNkCzKwCP2t7/Z/kfQA55GQDqkUmkD6CVpey4H2atXv+7GJt9AA9s7GmqEdD2/H/G/wLIIy8DgJTMWOCHmzzTHgTxBwBb2x0HLZ4E6GwLteXuxicC2gwAg+M1fXDe3vhjAHDF2wCQRFPXxlXNNQJuWdOpFUuYIDiXfRZXAGxOxW109aRYCHT/xuZ6Bprx6pEhq98nALjibQA4fMF+H0AQSA82sQ3weMyz7K8OTul8zPv/00bKNZ2+WrbytaXGGwEf2NitjpK9/4wZ/wsgr7wNAPXIWN3HnvZwEwEg7uX/pV7/uxib71+jwcn2/j/jfwHklbcBQErmOOBDTZwEiHuaXVzjf+djsw/goU2NHYe0GQBOXikz/hdAbhEALGs0AHS1F3Tv+ngHAL1xfMjq92bzZsCejoI2rV68EdBmAGD6H4A88zoAvHduTOMWB9pIjTcCPtLf3NG3xVwdqujcNXuX9kjSyatlDVvso3hokT6Avq6i+hsICa1i+R9AnnkdAOqR0ZsWl7GlxicCxv1Jdn8CqxvG2F0FuG/DwgHgwY3dCixdAFitmcRujgQAF7wOAFIy2wCNdLQ/0uTMgMXYbgCcZvNegHvXL/y+Pdxvb/mf8b8A8s77AJDEJ+UHNiz+cI/7MpukPr3aPAmwWE9Es3cGNIPxvwDyzvsA8M5Z+30ADywyqGZlb0nrVrbH9nrXhis68+GE1e9p2ttnRlW3NCln/coO9XQU5v35VkYtN4rxvwDyzvsAkMQ8gK1rO9XZNv9b/UgLlwYtJMm96/HJuo5ftjMQKAiknevmXgXoai+of42dBkDG/wLwgfcBQLL/wCyEgXaum38V4NGMLv9PszkPYL4+gEbnBLRi7+FBxv8CyD0CgJJ5YC60DdDKtcELSeKeg5ns9gHMFwAs7v9z/A+ABwgAkt45O2q943uhANDMtMDFXB+p6HRC+//TDlo9CTD3FkAzdyw0iwZAAD4gAEiq1Y3V8+zS/LMA7lnRrjXL2mJ7naQ//UvSuWuTujFStfK1F9oCsOHElbKuDDL+F0D+EQBus70NcN+G7jkn/cV9/j+JY41zOXTGzirA8u7ixwJSZ1uorWvtNADy6R+ALwgAt+07YffB2dkWavOajo/9eNz7//tO2J1sOJ9Dp5KbB3D/PGEqDuz/A/AFAeC2d86MabIaWX2NubYB4pxmd2OkqlNX7RzJW0ySjYD3NzBauRWM/wXgEwLAbZVapEOW7wWYqxEwzgbAfceHZRwdX3v37KhqdTsvvm3Wcv98swGWivG/AHxCAJhhv+Xl89mX26xd0a4VDdwU2Cjb2xgLmaxGOnxh3MrXnj3wZ4elAMD0PwA+IQDMYPsCndlL2fetj/dBts/BCYCZ3rK0grJlVgDYeY+tADBk5esCQBoRAGY4dHpUUxb7ANYub7vjE/996+MbZnNztKqTjvb/p9m6GXDNsjZ1374TYEVPSSt7S7G/xuBYVYcZ/wvAIwSAGSq1SG+fsTsPYMeMkcCLXXfbjDcc7v9Ps9UIGARS/+pbJyhs7f/vPTLE+F8AXiEAzGJ/G6Brzv+/VGnoXr98c0pXLQ3R2Xx7G8De/v+QrbcFAFKJADCL7UE605/6C2EQ6zCbNAQAyd4qwJa7b71Xtvb/X+X8PwDPEABmOWi5D2C68W/b2k61FeN5+wfHqjpxxe3+/zRbAWB6BWC7hRUAxv8C8BEBYJapaqR3z9prBrt3fbeCIN79f5fn/2ezdTXwlttTFG2sALD8D8BHBIA52OwD6O4oaP3KjlhPAOw77mb871zeP29nouKWuzutnQDYy/l/AB4iAMzB9n76veu7Ym0AtN242Ixa3egDC8fpVvSU9NSOvti/brVmrA+AAoA0IgDM4dDpEVVr9tbU713frZ0xBYDB8ZpOXLYzga9VBy1dDPTP//6m2L/mm6cY/wvATwSAOUxUIr17zt48gF/69DqtX9mx9C+kW6cW0nZ+/aClgUD3b4hv22Qa438B+IoAMA+b2wAre0sKYrrNdr/D+f/zsTUS2Ia9NAAC8BQBYB5pOVe/mDccz/+fy42Rqi7cmHRdxqIGx6o6fIHxvwD8RACYx5sn7fYBxGFovKZjl9K1/z/NVh9AnBj/C8BnBIB5TFQivZfyy2H2n0jf/v80W30AceL8PwCfEQAWYHsscJ7ry8IKAON/AfiMALCAtPcBpOn8/2xHL42n+njdicuM/wXgNwLAAg6cHFGtns419pFyTccupWP+/1zqkdE7FkcqLxXH/wD4jgCwgPJUXe+ntA9g/4kR1dPaAHCbrXsB4rCX5X8AniMALCKt2wBprWsmWzcDLhXjfwGAALCotD5o01rXTG+fHknNLYUzvXlyONX9CQCQBALAIg6cTN9S++hETUcupvP8/0yD4zWduTbhuoyP2cPyPwAQABYzPlnX4QvpethmYf9/Whr7ABj/CwAEgIakbdxuFpb/p6WtD4DxvwBwCwGgAftSduFOlgJA2i4G2nOY8b8AIBEAGnIgRUvuoxO11G1JLOTklbKGyzXXZXyE438AcAsBoAFparp7M4VNiQsxRnrnTHq2AQgAAHALAaBBaVl233c8XUvqjTiUkj6A45fLusr4XwCQRABoWFoCwBvHh1yX0LS09AEw/hcA/hYBoEFpOHo3PlnXB+fTsRXRjLfPjDp/7ySO/wHATASABqXh8p00DiVqxNhkXSevuH3vqjWjAyfTsRIBAGlAAGiC6+t307IN0Yq3TrntAzjA+F8AuAMBoAn7CQAtO3Ta7advlv8B4E4EgCbsPzHsbIhMmq8mboTrFYA9BAAAuAMBoAlD4zUdv+SmCe/AyRHV6tnb/5927vqEbo5Wnbz24FhVRy5mNzwBgA0EgCa5Gguc5eV/6dZAoEOOBgK98gHjfwFgNgJAk1wN4sl6AJCkg476APYe4fw/AMxGAGjSvmPJf5osT9X13rnsL2EfdNQH8OrR7IcnAIhb0XUBWTM4XtPZaxPaendnYq/51qnRTO//T3v37Ki+t+dqoq85PF5j/C8AzIEA0IKf/N23XJeQSROVSP/6OyddlwEAEFsAAAB4iQAAAICHCAAAAHiIAAAAgIcIAAAAeIgAAACAhwgAAAB4iAAAAICHCAAAAHiIAAAAgIcIAAAAeIgAAACAhwgAAAB4iAAAAICHCAAAAHiIAAAAgIcIAAAAeIgAAACAhwgAAAB4iAAAAICHCAAAAHiIAAAAgIcIAAAAeIgAAACAhwgAAAB4iAAAAICHCAAAAHiIAAAAgIcIAAAAeCgMjIlcFwEgjfirAciz0ATBuOsiAKRPxPMfyLXQSKOuiwCQQqbuugIAFoWBMZddFwEgfUy96roEABaFMuFR10UASJ+oSgAA8iystJcOSzKuCwGQLlFtwnUJACwKL33j6QEpeN91IQDSI6pMyNAFCORaKElBYP6f60IApEd1suy6BACWhZJkFP0314UASI/6xIjrEgBYFkrSmT//iT1GOuW6GADumVpF9SlWAIC8uz0KODChgm+6LgaAe5WxIdclAEjAR3cBhO3FP5M06LogAO6YqKbq2E3XZQBIwEcB4OSf/siIMeaPXBcEwJ3K6E2ZiAmAgA/uuA2w1lP8Gr0AgJ+iWkWVkRuuywCQkDsCwMU//MSEAn1FDAYCvDM1eEUy/NEHfBHM9YObv7z364HMr7suDkAyJm+cHR07cyiRj/9hz7pKWOhgyhDgWHGuH+weXPFb4ytuPh1In3BdIAC7auNDGj//fq+CsDeRFzSGPgMgBcK5fvCDv3qwUi21/UNJR1wXCMCeeqWskZP7eCADHgrn+4lL33h6ICxGPyWZk66LBBC/qDKhkeOvK6pOui4FgAPhQj956s8+eUFR248H0kHXhQKITzQ5pqGje1SfHHNdCgBHwsV+wZlv/siHpVrwjDH6nutiASxdZeiKBo+8oqjCdb+Az4JmfvGWX9nzZRl9TVKf68IBNMdEdZUvHtbktTMyDk/6hl13KwjbXL8dgPeaCgCStPGX9q4rFqOvS8HPtvL7ASSvMnRZ4xc+SMUlPwQAIB1afoD3P/fyriAKfyeQ/pEa2EoAkLzK0FVNXD6mannIdSkfCbvWKghLrssAvLfkT/Bbvvhqv4rRFwKjnzPSA66/IcB39alRTd64qMrNS6pPjbsu52MKXfdIYXHpXwjAksS6hL/hudfWl0z904H0uDHmfinYLJlVUtAriTU/ICbG1GVqNUW1iuqVsqLJUdXGh1Qbval6Nd3NfYXu9VLAoiHgGnv4OdX7xL/6MUXVva7rAO4UqtCz3nURAMTePYAksfQPpAYBAEBiaP4D0oMAACAxQbHDdQkAbiMAAEhMUGh3XQKA2wgAABIRFNqloOC6DAC3EQAAJCIodrsuAcAMBAAA9gWhglKX6yoAzEAAAGBdUOoVY0eAdCEAALArKCgs9biuAsAsBAAAVoXtyxn9C6QQfyoBWBMUOhQU2fsH0ogAAMCOoKCwY6XrKgDMgwAAwIJAYccqzv0DKUYAABC7sGMlU/+AlONqLgAxChS2r2DfH8gAAgCAmNxa9g+Kna4LAdAAAgCApQtLtx7+XPcLZAYBAMCSBKWeW2f9mfQHZAoBAEBrwrZb+/2FNteVAGgBAQBAU4JCu4K2PgWFDtelAFgCAgCAxYVtCoodCovdUshfG0Ae8Cc5r8JixJ4smhUEgaTw1vW9YUkKi7fO8zPLH8gdAkBOhW13Vfg7GwAwHx4RAAB4iAAAAICHCAAAAHiIAAAAgIcIAAAAeIgAAACAhwgAAAB4iAAAAICHCAAAAHiIAAAAgIcIAAAAeIgAAACAhwgAAAB4iAAAAICHCAAAAHiIAAAAgIcIAAAAeIgAAACAhwgAAAB4iAAAAICHCAAAAHiIAAAAgIcIAAAAeIgAAACAhwgAAAB4iAAAAICHCAAAAHiIAAAAgIcIAAAAeIgAAACAhwgAAAB4iAAAAICHCAAAAHiIAAAAgIcIAAAAeIgAAACAhwgAAAB4iAAAAICHCAAAAHiIAAAAgIcIAAAAeIgAAACAhwgAAAB4iAAAAICHCAAAAHiIAAAAgIcIAAAAeIgAAACAhwgAAAB4iAAAAICHCAAAAHiIAAAAgIcIAAAAeIgAAACAhwgAAAB4iAAAAICHCAAAAHiIAAAAgIcIAAAAeIgAAACAhwgAAAB4iACQU4UgmHBdAwAgtcoEgJwyxoy5rgEAkFqjBICc6q7Xr0uKXNcBAEilawSAnLr4+r+ckHTRdR0AgBQKdIwAkGNGet91DQCAFDL6gACQY6G0x3UNAIAUCvQyASDHojD8G9c1AABSpzwU9L1OAMix4ZdeeFPScdd1AADSwxjzP/TSL04SAPIuCL7rugQAQHqEYeHbEoOAcq9WLf1HSWXXdQAA3DPSkcGXB/6PRADIvbHXfvWaZL7pug4AgHuh9AfS70W3/z/yrl4q/r6kG67rAAA4dWDwlcH/PP0PBAAPjP7wKwMmML/tug4AgDM1Y6Lnpj/9SwQAbwy//NVvSvrvrusAACQvMPrd4T2/fnDmjxEAvBEYE5W+KAUnXVcCAEhQoB8M7hn897N/mADgkeG9zw8aBZ+RdMV1LQCARBwoBcWfm7n0P40A4JnhV144E4T6jKTLrmsBAFi1v14q/N3rL/3anNfDEwA8NPjSV99XGP2YpMOuawEAWBDoB+0dlWdHf/iVgfl/Cby14Ue/3jleLP6xCcyXXNcCAIhFXdIfDL0y+PtzLfvPRACAVnzyT/6BMeZPJG12XQsAoFXBwSiKnh/Z+y/2NfSrXZeLdLj7M1/rnpxofz4IzG9Iutt1PQCAhh0OpH97a8jPwp/6ZyIA4A4bfvTrnWNthZ+W0RckPSup4LomAMDHTBhj/joMC9++Ndu/8Qf/NAIA5rX8mT9crnr4ySDQjxvpfiNtC6TVknoltbmuDwA8UJbMmBRcVaDjMvpAgV4eCvpe10u/OOm6OAAAAAAAAAAAAAAAAAAAAAAAAAAAAAAAAAAAAAAAAAAAAAAAAAAAAAAAAAAAAAAAAAAAAAAAsuf/A2ucJg7h2bQfAAAAAElFTkSuQmCC;labelPosition=right;align=left;" parent="1" vertex="1">
                    <mxGeometry x="329.5" y="188" width="34" height="34" as="geometry"/>
                </mxCell>
                <mxCell id="25" value="" style="edgeStyle=none;html=1;fontColor=#E8E8E8;startArrow=block;startFill=1;endArrow=none;strokeColor=#000000;" parent="1" source="11" target="16" edge="1">
                    <mxGeometry relative="1" as="geometry">
                        <mxPoint x="346.5" y="154" as="targetPoint"/>
                        <mxPoint x="346.5" y="271" as="sourcePoint"/>
                    </mxGeometry>
                </mxCell>
            </root>
        </mxGraphModel>
    </diagram>
</mxfile>